<svg xmlns="http://www.w3.org/2000/svg" version="1.1" xmlns:xlink="http://www.w3.org/1999/xlink" width="1000" height="1000"><g clip-path="url(#SvgjsClipPath1064)"><rect width="1000" height="1000" fill="#ffffff"></rect><g transform="matrix(5.9523809523809526,0,0,5.9523809523809526,0,0)"><svg xmlns="http://www.w3.org/2000/svg" version="1.1" xmlns:xlink="http://www.w3.org/1999/xlink" width="168" height="168"><svg xmlns="http://www.w3.org/2000/svg" width="168" height="168" fill="none" viewBox="0 0 168 168"><path stroke="#111" stroke-linecap="round" stroke-width="3" d="M30.5 26.5c30.635-27.951 77.53-30.414 108.049 1.277 30.519 31.69 30.573 80.419.001 111.108-30.572 30.688-78.062 32.058-109.1 0S2 73.5 15 48"></path><path fill="#111" d="M67.602 137.546c-2.15 2.359-2.902 3.322-.67 3.681l.67.079 4.35-4.764c.254-1.475.806-2.698 1.56-3.681l4.793-6.359 1.01-1.339c1.297-1.102 2.656-1.915 4.016-2.444a3.4 3.4 0 0 1 .097-1.572c.193-.652.57-1.274 1.086-1.823l2.253-2.507-1.094-.02zM113.449 67.267c.023-7.238-1.319-10.249-8.701-11.713-1.828 1.53-2.99 2.087-5.639 2.342-.362 1.128-.857 2.296-1.724 4.016 1.599 8.244 3.827 11.033 9.705 13.387 4.041-3.055 4.637-5.75 3.682-11.714 1.191.974 1.734 1.81 2.677 3.682M56.222 35.474c.053 1.09.066 2.08.038 3.012C58.6 23.57 62.163 17.87 75.633 17.068c1.13.013 1.79.09 3.012.334 10.375-.669 15.382 6.941 25.435 20.75l-7.698-8.702 4.016 15.73c2.307-2.632 4.016-4.351 6.358-3.347.795-2.337 1.062-3.702 1.004-6.359-.346-7.652-2.061-11.535-7.897-17.279a6.2 6.2 0 0 0-1.025-.813c-8.968-5.706-14.167-7.045-22.537-6.004-9.5 2.093-13.724 4.579-18.406 11.714-2.003 3.69-2.113 6.623-1.673 12.382"></path><path stroke="#111" stroke-linecap="round" stroke-width=".669" d="M17.857 28.004C11.46 33.53 14.316 40.426 25.1 56.892c-8.33-21.382-10.973-29.466-4.018-30.788s7.629 12.394 6.694 30.12m-1.003 0c-1.15-18.75-2.655-25.266-6.665-29.117-.119-.113-.408-.435-.531-.544m6.527 29.995c-4.3-15.094-7.46-25.303-4.467-28.243 1.27-1.247 3.4-.833 5.002-.059 6.96 3.363 3.743 14.005 1.808 27.967m-4.018 6.024-.67-4.016c2.063-1.655 3.623-1.798 6.025-1.339l.669 6.694m-6.024-1.34c-3.265 1.43-3.916 2.691-4.016 5.355m4.016-5.354c3.077 1.094 5.262 2.698 6.358 4.082m-1.338 2.946c.334 0 1.23.593 2.008-.67.313-.508.07-1.342-.67-2.276m-1.338 2.946c-2.997-2.33-5.06-2.45-9.036-1.674m9.036 1.674c1.244 1.535 1.824 2.45 2.342 4.35.21.9.134 1.395-.268 1.674M20.413 67.6c-2.037 1.346-2.15 2.171-2.008 4.016m0 0c5.742-.85 8.386-.104 11.713 4.016m-11.713-4.016c-1.733 1.726-1.67 2.676-.67 4.351m12.383-.335c1.412 3.062 1.162 3.726-1.673 3.012m1.673-3.012c.651-.045 1.114-.133 1.405-.334m-3.078 3.346c-3.447-2.905-5.875-3.407-10.71-2.677m10.71 2.677c1.414 2.7 1.43 3.679-1.674 3.347m-9.035-6.024c-1.525 4.467 0 7.454 4.016 11.044m5.02-5.02-2.343-1.339-2.008-.167m4.35 1.506c.238 1.79.516 2.812 1.295 4.097.227.374.642.596 1.08.587 2.679-.052 3.771-.736 3.315-4.35l-.938-7.027m-11.11 5.02 2.008.167m0 0c.891.835.946 1.367-.335 2.51m1.674 5.69c-.892-.71-1.298-1.04-2.008-1.674m0 0c-3.92 20.449-4.288 27.563-.395 33.131 4.767 8.148 8.948 7.536 17.519 1.859a3.3 3.3 0 0 0 .511-.419l4.118-4.117m0 0c.01-5.914.492-9.116 3.011-14.39m-3.011 14.39 1.673 13.721c-1.095 4.596-1.753 6.86-3.012 10.709-.761 2.622-.979 4.417-1.004 7.028m5.355-45.848c-3.46-3.547-6.339-5.185-11.63-6.447l12.968-16.31c3.211-3.465 7.238-5.08 16.064-6.648m-17.402 29.405 2.175-4.686M30.787 66.33l-.334-2.744m0 0c1.96-2.31 3.241-2.6 4.467-.416a1.8 1.8 0 0 1 .218.883v5.591c0 .199.03.399.088.59 1.595 5.31 1.615 8.1-.088 12.427l-1.9 3.167a.67.67 0 0 0-.093.392c.455 6.485 1.368 9.71 3.332 15.182 2.506 5.939 2.722 9.318 1.673 15.395m30.12-43.84c-1.57.24-3.015.477-4.351.714m0 0c-5.309 7.064-7.541 11.224-11.379 18.695m0 0 6.359 1.34m-6.359-1.34c-.735.01-1.033.278-1.673 1.34l-1.398 3.011m9.43-3.012c1.63-3.94 3.044-7.024 4.623-10.04M58.9 93.705c12.163 3.002 19.975 3.54 34.47 2.677M69.61 73.291c-5.41-4.405-8.379-6.986-12.282-11.536a6.2 6.2 0 0 1-.757-1.104c-2.202-4.112-2.978-6.79-2.356-12.125M69.608 73.29q.863.433 1.673.745m-1.673-.745a239 239 0 0 0-2.883 4.685m-12.511-29.45c-.887-2.945-.77-4.598-.67-7.363.341-2.247.971-2.774 2.716-2.677m-2.046 10.04c1.273-3.98 1.94-6.616 2.046-10.04m0 0a38 38 0 0 0-.038-3.012c-.44-5.759-.33-8.693 1.673-12.382 4.682-7.135 8.906-9.62 18.406-11.714 8.37-1.04 13.57.298 22.537 6.004.368.233.715.508 1.025.813 5.836 5.744 7.551 9.627 7.897 17.279.058 2.657-.209 4.022-1.004 6.359M56.26 38.486C58.6 23.57 62.163 17.87 75.633 17.068c1.13.013 1.79.09 3.012.334 10.375-.669 15.382 6.941 25.435 20.75l-7.698-8.702 4.016 15.73c2.307-2.632 4.016-4.351 6.358-3.347m0 0c2.267 2.913 2.229 5.292.586 10.003-.164.469-.385.919-.662 1.331-.628.934-1.11 1.524-1.932 2.387m0 0c7.382 1.464 8.724 4.475 8.701 11.713-.943-1.872-1.486-2.708-2.677-3.681.955 5.962.359 8.658-3.682 11.713-5.878-2.354-8.106-5.143-9.705-13.387m7.363-6.358c-1.828 1.53-2.99 2.087-5.639 2.342m-1.724 4.016c.867-1.72 1.361-2.888 1.724-4.016m-1.724 4.016a62 62 0 0 1-2.008 2.35m4.35-8.708a27 27 0 0 1-.618 2.342m-27.827 16.14c4.104 1.578 7.442.866 13.386-1.75 4.495-2.364 7.239-4.176 10.71-8.023M71.28 74.036c.59 2.837.545 4.282 0 6.617m24.096-16.39c-.24 2.6-.314 4.02 0 6.35m0 0a360 360 0 0 1-.292 8.367m.292-8.367 5.355 2.343m-7.363 23.426c.593-4.39 1.044-7.66 1.385-12.047m-1.385 12.047h7.363m-5.978-12.047c-3.272 3.246-5.194 4.8-8.747 7.362m8.747-7.362c.124-1.6.234-3.349.33-5.355m0 0c-6.015 6.186-9.111 10.025-16.775 12.048s-11.54-2.092-11.584-13.052m0 0a115 115 0 0 0-3.203 5.69m0 0c.637 2.823 1.107 4.371 2.405 7.027M48.692 98.39c-.643-2.848-1.077-4.41-2.175-7.028m2.175 7.028.777-1.673m0 0 2.067-14.056m49.196 13.721c.387-9.148.434-14.277 0-23.426m0 23.426c1.389-.166 2.092 6.108 3.346 17.068l.67 1.339h3.346l1.004-1.004m-8.366-40.829c7.084 2.481 10.579 4.138 15.729 7.697 4.576 3.608 7.175 9.21 13.721 25.1m0 0c.059.874-.156 1.438-1.339 2.677m1.339-2.677q-1.225.07-2.343.167m-18.741 7.865-3.012-11.044c.418-7.601 1.651-11.562 5.689-18.072m-2.677 29.116c5.688-4.945 9.783-7.086 18.741-7.865m-18.741 7.865a48 48 0 0 1 2.145-1.004m17.6-4.351-1.004-2.51m1.004 2.51 3.347 8.701m0 0-6.693-.669m6.693.669c7.558.382 9.641 1.583 5.689 7.028l-2.51 3.849m-9.872-11.546.334 2.343m-.334-2.343c-4.23-5.587-7.429-6.653-14.254-3.681m17.935 20.079c1.502-.612 2.24-.812 3.681-1.004l2.51-3.848m-6.191 4.852 6.369-9.705m-6.369 9.705c-2.773 2.607-3.874 4.182-3.794 5.355m.447-19.41 6.359.334c5.31.155 5.66.961 4.016 3.012l-.659 1.004m-9.716-4.35c.012 1.32-.018 2.392-.334 3.681m0 0 10.05.669m-10.05-.669c-3.752 5.65-5.803 7.409-9.371 8.032m0 0c.301 3.097-.09 4.527-1.673 6.693-3.135 4.251-4.786 5.294-7.697 6.359m9.37-13.052c2.449-1.869 3.396-3.035 3.012-5.689-.911-3.48-2.255-5.014-7.141-6.301a2.5 2.5 0 0 0-.449-.076c-3.964-.29-5.521.616-8.474 3.699m13.052 8.367a32 32 0 0 0-1.391-2.343m-7.979 15.395c3.045-3.791 3.534-5.798.272-9.409a3 3 0 0 0-.611-.516c-5.189-3.314-8.123-3.169-12.944.147a.6.6 0 0 0-.167.18v0m13.45 9.598c-7.842 1.154-10.582.407-13.387-2.678-.87-1.587-1.278-2.77-1.153-4.016m1.09-2.904c-.647 1.111-1.002 2.023-1.09 2.904m1.09-2.904c.888-1.334 1.619-2.403 2.407-3.422m1.502-1.8a42 42 0 0 1 1.476-1.555 6 6 0 0 1 1.582-1.14 39 39 0 0 1 2.132-.983m-5.19 3.678c6.516-2.819 9.42-2.604 13.222 1.433m-13.222-1.433a32 32 0 0 0-1.502 1.8m7.361-8.399c-.459 1.095-.54 1.75-.669 2.921m.669-2.921c1.753-2.562 3.11-4.339 4.847-6.172m-5.516 9.093c1.792-.756 3.33-1.202 4.687-1.337m4.151-10.954c-1.306 1.175-2.371 2.195-3.322 3.198m0 0c5.459-2.87 7.992-2.555 12.556 1.152m-13.385 6.604c3.255-.323 5.467 1.148 7.643 4.44m-7.643-4.44c1.003-2.922 10.374-.58 7.643 4.44m20.634-.167c2.554 9.317-.173 12.894-11.879 16.566m0 0 3.012-4.686m-3.012 4.686-1.673 2.342c-.952 1.17-1.715 1.856-2.678 2.173m7.363-9.201c2.644.065 5.02-3.346 5.354-3.346m-5.354 3.346c-.675-.505-1.075-1.028-1.118-1.673m0 0-4.906 6.693c-2.016 2.163-3.2 2.391-5.355 2.008l-47.521-5.61m0 0-.67-.079c-2.232-.359-1.48-1.322.67-3.681l18.071-20.749 1.094.02m-19.165 24.489 4.35-4.764m0 0c.675 4.5 7.93 6.791 12.562 5.227m-12.562-5.227c.254-1.475.806-2.698 1.56-3.681m5.133 3.346h2.343m3.526 5.562c2.258-.763 3.892-2.442 3.837-5.227-.144-7.208-10.634-9.171-14.84-3.681m11.003 8.908c2.768-.72 4.415-1.597 7.702-4.893m3.497-6.326a15 15 0 0 0-.335-1.63m-21.866 3.941 4.793-6.359m0 0 1.01-1.339c1.297-1.102 2.656-1.915 4.016-2.444m-5.026 3.783c5.618-2.259 8.121-1.718 11.719 1.673m-6.693-5.456a10.8 10.8 0 0 1 2.677-.678m-2.677.678a3.4 3.4 0 0 1 .097-1.572c.193-.652.57-1.274 1.086-1.823m10.864 9.596c-.398-1.489-1.012-2.743-1.788-3.757m1.788 3.757q.356-.315.668-.629m-10.038-6.25c2.974-.347 5.737.711 7.582 3.122m-7.582-3.122c3.681-1.898 9.37 1.114 7.582 3.122m-9.076-5.839c1.702-1.808 4.931-2.825 8.187-1.523 6.328 3.164 6.971 6.845 3.345 10.49m-11.532-8.967 2.253-2.507m9.28 11.474 9.371-11.16c-2.677-7.697-9.036-8.366-14.725-4.685l-1.673 1.863m0 0c4.73-1.803 7.11-1.596 10.708 1.67m-10.708-1.67-.335.372m-1.918 2.136 1.918-2.136m0 0c-2.712-.73-4.06-.582-6.024 1.112L63.586 138.55c-1.286 2.617-.63 3.561 2.008 4.685m0 0 51.203 6.024c.951.089 1.692.044 2.342-.17m-53.545-5.854c.756 1.87 1.926 2.68 5.354 3.681l39.825 4.704m8.366-2.531c-.317.614-.634 1.112-1.004 1.511m-15.394-97.054c1.766-2.831 1.895-3.96.669-6.359m-1.673 3.012c.943-2.792 1.81-3.99 4.351-5.02m4.685 106.441 2.677.316c2.465.042 3.744-.321 4.685-1.336m-7.362 1.02.334 5.336m7.028-6.356.335 3.01m-13.388-14.391c1.043-2.505-6.056-5.907-8.53-2.615-.426.567-.577 1.31-.457 2.009.175 1.019.828 1.696 2.744 2.342.585.197 1.202.283 1.817.325 2.468.167 3.416.365 4.426-2.061Zm-29.449-2.677c.67-4.685 9.06-3.175 8.881 0s-8.211 3.681-8.88 0Z"></path><path fill="#111" d="M79.984 44.175c3.012-5.689 9.036-5.02 10.04 0-.67-6.358-8.032-6.358-10.04 0"></path><path fill="#111" d="M87.012 41.498c-2.69.518-3.143 5.161-.67 5.355 1.297.1 1.87-1.437 2.009-3.012-.982-.178-.997-.856 0-1.004 0-1.004-.392-1.521-1.339-1.339"></path><path stroke="#111" stroke-width=".669" d="M90.024 44.175c-1.004-5.02-7.028-5.689-10.04 0 2.008-6.358 9.37-6.358 10.04 0Zm0 0 2.008-1.338m-5.02-1.339c-2.69.518-3.143 5.161-.67 5.355 1.297.1 1.87-1.437 2.009-3.012-.982-.178-.997-.856 0-1.004 0-1.004-.392-1.521-1.339-1.339Z"></path><path fill="#111" d="M78.98 35.809c5.228-3.32 8.367-2.677 13.721.67-2.342-4.352-9.37-7.363-13.72-.67"></path><path fill="#111" d="m78.98 35.809-.28-.183a.335.335 0 0 0 .46.465zm13.721.67-.177.283 1.07.669-.598-1.112zm-13.72-.67.178.282c2.581-1.639 4.6-2.27 6.608-2.114 2.022.157 4.087 1.117 6.757 2.785l.177-.284.178-.284c-2.686-1.678-4.867-2.714-7.06-2.884-2.207-.172-4.371.535-7.018 2.216zm13.72.67.295-.16c-1.216-2.258-3.642-4.167-6.344-4.647-2.734-.485-5.708.502-7.953 3.954l.281.183.28.182c2.107-3.24 4.822-4.095 7.275-3.66 2.486.441 4.745 2.213 5.872 4.306z"></path><path fill="#fff" d="M85.339 16.064c.389.107.754.212 1.14.327 3.395 1.006 6.715 2.389 9.482 4.585 2.781 2.176 4.995 4.988 7.089 7.847.237.325.46.633.695.962a85 85 0 0 0-.642-.998c-1.946-2.961-4.107-5.86-6.935-8.075-2.816-2.234-6.23-3.552-9.672-4.382-.392-.096-.763-.18-1.157-.266M103.41 59.235c.107.136.208.268.312.404.927 1.21 1.706 2.47 2.237 3.842.541 1.371.911 2.83 1.328 4.299l.139.49a29 29 0 0 0-.013-.51c-.061-1.524-.258-3.066-.832-4.525-.564-1.464-1.578-2.729-2.768-3.684a13 13 0 0 0-.403-.316"></path><path stroke="#111" stroke-linejoin="round" stroke-width=".669" d="M99.394 138.215c1.205-.165 1.851-.175 2.678 0m-2.678 0c1.055.078 1.657.081 2.678 0m-2.678 0h2.678"></path><path fill="#fff" d="m105.084 56.892.263.204c.791.605 1.598 1.144 2.392 1.678.795.532 1.586 1.078 2.419 1.62l.28.18a12 12 0 0 0-.192-.273 8.5 8.5 0 0 0-2.134-2.083c-.832-.559-1.752-.953-2.707-1.235-.108-.032-.212-.06-.321-.09M75.299 12.717l.454-.001c1.36-.007 2.713-.035 4.064-.035 1.352-.002 2.704.024 4.063.034l.455.002-.45-.066a29 29 0 0 0-4.068-.304c-1.363 0-2.722.118-4.068.305z"></path><path fill="#111" d="M60.239 42.167c-.59-4.199 5.69-6.024 8.367 1.004-2.678-9.37-10.393-4.475-8.367-1.004"></path><path fill="#111" d="m59.908 42.214.662-.093a3.3 3.3 0 0 1 .038-1.25c.352-1.796 2.607-2.645 4.279-1.849 1.716.73 2.857 2.446 3.553 4.212l.335-.111c-.635-2.08-1.703-4.349-3.869-5.21-2.114-.866-4.882.635-5.016 2.932-.017.464.11.928.349 1.322a2.4 2.4 0 0 1-.316-1.32c.19-2.263 2.935-3.63 4.913-2.754 2.037.863 3.029 3.074 3.6 5.127l.335-.112c-.676-1.827-1.797-3.67-3.687-4.54-1.824-.948-4.599-.06-5.094 2.15-.127.49-.147 1.001-.082 1.496m.662-.093-.662.093.331-.047z"></path><path fill="#111" stroke="#111" stroke-width=".669" d="M65.594 40.16c-2.678.669-1.86 5.414 0 5.354s1.633-1.123 1.673-3.012c-.554-.215-.624-.374-.67-.67.081-.371.204-.532.67-.669-.423-.703-.685-1.064-1.673-1.004Z"></path><path fill="#111" d="M58.231 33.8c3.012-3.011 7.697-2.676 11.044 1.34-1.339-4.686-7.697-6.36-11.044-1.34"></path><path fill="#111" d="m58.231 33.8-.278-.185a.335.335 0 0 0 .515.422zm11.044 1.34-.257.214.579-.306zM58.23 33.8l.237.237c1.436-1.436 3.261-2.068 5.124-1.87 1.866.199 3.799 1.234 5.426 3.187l.257-.215.257-.214c-1.72-2.063-3.803-3.203-5.87-3.423-2.069-.22-4.092.487-5.668 2.062zm0 0 .279.186c1.601-2.402 3.898-3.179 5.939-2.826a5.7 5.7 0 0 1 4.504 4.071l.322-.092.322-.092a6.37 6.37 0 0 0-5.034-4.546c-2.31-.4-4.866.497-6.61 3.114z"></path><path stroke="#111" stroke-linecap="round" stroke-width=".669" d="M70.948 41.498c.55 3.911-.306 5.443-2.677 7.697-.942 1.131-.975 1.789 0 3.012 1.08 1.102 1.797 1.564 3.347 2.008"></path><path fill="#111" d="M73.022 52.366a.3.3 0 0 0-.126.032.18.18 0 0 0-.082.09.18.18 0 0 0 .002.122.3.3 0 0 0 .074.108q.056.055.113.106.513.465 1.116.69a3.5 3.5 0 0 0 1.448.208.3.3 0 0 0 .127-.032.17.17 0 0 0 .081-.091.17.17 0 0 0-.002-.122.3.3 0 0 0-.073-.107l-.113-.106a3.5 3.5 0 0 0-1.116-.69 3.5 3.5 0 0 0-1.449-.208M86.008 55.554c-.54.634-.121.458-.67 1.004-6.835 6.553-15.483 6.631-19.744.67-.291-.419-.167-.196-.43-.67.916 2.684 2.018 4.569 3.442 6.024 5.949.558 9.127.278 14.055-1.842 1.192-1.406 2.322-3.135 3.347-5.186"></path><path fill="#111" d="M86.008 55.554c-5.58 3.136-15.086 3.77-20.844 1.004.263.474.138.251.43.67 7.178 1.796 12.568 1.362 19.745-.67.548-.546.129-.37.669-1.004"></path><path stroke="#111" stroke-linecap="round" stroke-width=".669" d="M63.251 55.22c.613.573 1.146.907 1.913 1.338m20.844-1.004-.335-.335m.335.335c-5.58 3.136-15.086 3.77-20.844 1.004m20.844-1.004c-1.025 2.05-2.155 3.78-3.347 5.186m3.347-5.186c-.54.634-.121.458-.67 1.004m-20.174 0c.916 2.684 2.018 4.569 3.442 6.024m-3.442-6.024c.263.474.138.251.43.67m3.012 5.354c3.936 4.022 9.506 3.532 14.055-1.842m-14.055 1.842c5.949.558 9.127.278 14.055-1.842m-17.067-3.513c4.261 5.962 12.91 5.884 19.745-.67m-19.745.67c7.178 1.797 12.568 1.363 19.745-.67"></path><path fill="#111" d="M70.736 67.124a.3.3 0 0 0-.13-.017.18.18 0 0 0-.111.058.18.18 0 0 0-.04.118c0 .044.015.088.036.127q.09.16.197.308c.284.393.675.723 1.144.915 1.716.68 3.405.13 4.87-.392q.157-.06.317-.123a.2.2 0 0 0 .106-.09.18.18 0 0 0 .018-.136.18.18 0 0 0-.082-.11.2.2 0 0 0-.136-.028l-.334.043c-1.546.183-3.12.436-4.377-.093-.361-.148-.734-.301-1.155-.46zM84 54.55l.184.12c.551.36 1.082.675 1.599.979.512.312 1.025.582 1.436 1.068q.067.082.128.175.004-.111-.01-.224c-.099-.698-.645-1.26-1.213-1.595A3.9 3.9 0 0 0 84 54.55M62.247 55.888l.125-.077c.368-.239.659-.437.945-.654.287-.22.575-.484.848-.826q.045-.056.09-.116-.075 0-.148.003c-.438.02-.85.142-1.198.408a1.7 1.7 0 0 0-.644 1.116 3 3 0 0 0-.018.146"></path></svg></svg></g></g><defs><clipPath id="SvgjsClipPath1064"><rect width="1000" height="1000" x="0" y="0" rx="500" ry="500"></rect></clipPath></defs></svg>