<svg xmlns="http://www.w3.org/2000/svg" width="299" height="180" fill="none" viewBox="0 0 299 180"><g clip-path="url(#a)"><g clip-path="url(#b)"><path fill="#f6d28a" stroke="#000" stroke-width=".843" d="M272.369 155.288c8.452-1.188 14.34-9.002 13.152-17.453-1.187-8.452-9.001-14.34-17.453-13.152s-14.339 9.002-13.152 17.453 9.002 14.339 17.453 13.152Z"/><path stroke="#6cc66c" stroke-linecap="round" stroke-width="1.124" d="m270.219 139.985.059-.002.061.011.057.023.051.036.049.044.039.057.029.066.019.074.005.079-.005.083-.019.088-.036.087-.051.084-.062.082-.08.074-.093.067-.105.058-.116.044-.126.032-.137.014-.14-.003-.147-.019-.147-.039-.148-.059-.144-.079-.142-.099-.13-.121-.119-.137-.107-.155-.092-.171-.072-.189-.053-.199-.03-.209-.005-.221.017-.223.045-.225.073-.226.099-.221.126-.216.153-.203.178-.19.202-.173.228-.154.246-.131.266-.106.281-.076.295-.047.304-.014.309.019.311.055.311.087.304.125.295.16.28.196.261.227.241.258.217.29.183.315.152.339.119.361.078.375.041.388-.004.398-.046.401-.091.399-.135.393-.179.38-.221.366-.266.346-.302.318-.342.289-.373.254-.407.216-.432.174-.453.129-.471.078-.484.031-.488-.022-.49-.076-.487-.13-.473-.181-.462-.235-.434-.286-.408-.334-.377-.381-.334-.421-.292-.461-.245-.496-.194-.526-.136-.549-.08-.564-.018-.577.043-.582.105-.582.17-.571.231-.558.291-.531.351-.507.405-.471.459-.427.505-.384.55-.329.586-.27.617-.211.644-.145.659-.075.671-.007.677.067.668.136.657.211.638.282.608.349.575.415.53.479.484.536.423.591.365.638.297.676.227.711.15.74.072.756-.009.764-.088.764-.172.759-.253.742-.333.717-.409.684-.483.641-.553.591-.617.533-.675.469-.724.397-.769.321-.806.241-.833.154-.85.065-.86-.024-.856-.115-.847-.207-.827-.295-.795-.388-.756-.47-.707-.55-.65-.629-.583-.696-.51-.759-.429-.817-.343-.862-.254-.898-.156-.929-.059-.945.042-.953.142-.948.244-.934.343-.91.439-.873.533-.827.621-.771.704-.706.779-.632.848-.55.905-.462.953-.364.993-.262 1.025-.158 1.037-.049 1.047.06 1.04.171 1.021.282.991.389.95.496.898.598.837.691.763.78.677.861.588.934.491.994.383 1.05.272 1.088"/><path stroke="#fff" stroke-linecap="round" stroke-width=".843" d="M263.286 131.029q4.977-4.955 11.129-1.564" opacity=".5"/><path fill="#f6d28a" stroke="#000" stroke-width=".843" d="M271.604 35.756c8.451-1.188 14.339-9.002 13.151-17.453-1.187-8.452-9.001-14.34-17.453-13.152-8.451 1.187-14.339 9.001-13.151 17.453 1.187 8.451 9.001 14.34 17.453 13.152Z"/><path stroke="#6cc66c" stroke-linecap="round" stroke-width="1.124" d="m269.453 20.453.059-.003.061.012.058.023.05.035.049.045.039.056.029.067.019.074.005.079-.005.083-.019.088-.036.087-.05.084-.063.082-.08.074-.093.067-.105.057-.116.045-.126.032-.137.014-.14-.004-.147-.019-.147-.038-.147-.06-.145-.078-.142-.1-.13-.12-.119-.137-.106-.155-.093-.171-.072-.189-.053-.2-.029-.208-.006-.22.017-.224.045-.225.073-.226.1-.221.125-.216.153-.203.178-.19.203-.173.228-.154.245-.131.266-.106.282-.076.294-.047.304-.015.309.02.312.055.31.087.304.125.295.16.28.196.261.227.241.258.217.29.183.315.153.339.118.36.079.375.04.39-.004.397-.045.4-.092.4-.135.393-.179.38-.221.365-.266.347-.302.318-.342.289-.373.254-.406.216-.433.174-.453.13-.471.077-.484.03-.488-.021-.49-.076-.487-.13-.473-.18-.462-.237-.434-.285-.408-.334-.377-.381-.334-.421-.292-.461-.245-.497-.193-.526-.137-.548-.079-.565-.019-.576.043-.582.105-.582.17-.572.231-.557.291-.532.352-.506.404-.47.459-.429.506-.383.549-.33.586-.27.618-.21.643-.145.659-.076.672-.006.676.067.669.135.656.212.639.282.607.348.575.416.53.479.484.536.423.59.365.639.297.676.227.711.15.74.072.755-.009.765-.088.764-.172.76-.253.741-.333.717-.409.684-.483.641-.553.591-.617.532-.675.47-.724.397-.769.32-.806.242-.833.153-.85.066-.86-.024-.856-.115-.847-.207-.827-.295-.795-.388-.755-.47-.708-.55-.65-.63-.583-.695-.509-.76-.43-.816-.343-.863-.253-.897-.156-.929-.06-.945.042-.953.142-.948.244-.934.343-.91.439-.874.533-.826.621-.771.704-.707.779-.631.848-.55.905-.463.953-.363.994-.262 1.024-.158 1.037-.05 1.047.06 1.04.172 1.021.282.991.389.95.496.898.598.837.69.763.781.677.861.588.933.491.995.384 1.05.272 1.088"/><path stroke="#fff" stroke-linecap="round" stroke-width=".843" d="M262.52 11.497q4.978-4.955 11.129-1.564" opacity=".5"/><path fill="#f2b75e" fill-rule="evenodd" d="M195.52 139.297a9 9 0 0 0-.797.968c-4.445 6.234-.237 17.027 12.022 17.123 2.284.018 4.289-.279 6.011-.814 3.023-.585 5.209-1.837 6.601-3.449 4.244-4.378 6.436-8.7 6.436-8.7l.574-.99c2.713-4.672 3.802-6.547 3.266-8.855-.089-.385-.287-.742-.527-1.057-7.604-9.954-12.689-10.707-23.129-5.554-1.304.643-2.44 1.582-3.363 2.704l-.849 1.032zm11.225 13.173c-9.939-.856-10.435-11.11 0-9.836s9.938 10.692 0 9.836" clip-rule="evenodd"/><path fill="#fef9f1" fill-rule="evenodd" d="M206.745 152.47c-9.939-.856-10.435-11.11 0-9.836s9.938 10.692 0 9.836" clip-rule="evenodd"/><path stroke="#000" stroke-linecap="round" stroke-width="1.093" d="M194.723 140.265c-4.445 6.234-.237 17.027 12.022 17.123 2.284.018 4.289-.279 6.011-.814m-18.033-16.309q.36-.506.797-.968m-.797.968.797-.968m17.236 17.277c13.578-2.627 10.266-18.706-6.011-20.498-5.265-.579-8.993.858-11.225 3.221m17.236 17.277c3.023-.585 5.209-1.837 6.601-3.449 4.244-4.378 6.436-8.7 6.436-8.7l.574-.99c2.713-4.672 3.802-6.547 3.266-8.855m-27.868-2.875c9.814-3.843 14.807-4.442 20.827 3.279m-20.827-3.279-6.245 7.592m6.245-7.592.849-1.032m0 0c.923-1.122 2.059-2.061 3.363-2.704m-3.363 2.704v0c.923-1.122 2.059-2.061 3.363-2.704v0m0 0c10.44-5.153 15.525-4.4 23.129 5.554m0 0c.24.315.438.672.527 1.057m-.527-1.057.004.006c.24.315.434.666.523 1.051v0m-22.888 17.89c-9.939-.856-10.435-11.11 0-9.836s9.938 10.692 0 9.836Z"/><path fill="#f6d28a" stroke="#000" stroke-width=".983" d="M239.034 99.037c8.856 1.087 16.916-5.21 18.003-14.065s-5.21-16.916-14.065-18.003c-8.856-1.088-16.916 5.21-18.003 14.065-1.088 8.856 5.21 16.916 14.065 18.003Z"/><path fill="#8b5a2b" d="M240.776 84.853a1.863 1.863 0 1 0 .455-3.699 1.863 1.863 0 0 0-.455 3.699"/><path stroke="#fff" stroke-linecap="round" stroke-width=".983" d="M237.438 73.801q5.004-2.515 9.25 1.136" opacity=".5"/><path fill="#e6a95c" stroke="#000" stroke-width="1.031" d="M-1.5 102C7.613 102 15 94.613 15 85.5S7.613 69-1.5 69-18 76.387-18 85.5-10.613 102-1.5 102Z"/><path fill="#f6d28a" stroke="#000" stroke-width=".843" d="M120.604 99.756c8.451-1.188 14.339-9.002 13.152-17.454-1.188-8.45-9.002-14.34-17.454-13.151-8.451 1.187-14.339 9.001-13.151 17.453 1.187 8.451 9.001 14.339 17.453 13.152Z"/><path stroke="#6cc66c" stroke-linecap="round" stroke-width="1.124" d="m118.453 84.453.059-.003.061.012.058.023.05.035.049.045.039.056.029.067.019.074.005.079-.005.083-.019.088-.036.087-.05.084-.063.082-.08.074-.093.067-.105.057-.116.045-.126.032-.137.013-.139-.003-.148-.019-.147-.038-.147-.06-.145-.078-.141-.1-.131-.12-.118-.137-.107-.155-.093-.171-.071-.189-.054-.2-.029-.208-.006-.22.017-.224.045-.225.073-.226.1-.221.125-.216.153-.203.178-.19.203-.173.228-.154.245-.131.266-.106.282-.076.294-.047.304-.015.309.02.312.055.31.087.304.124.295.16.28.197.262.227.24.258.217.29.183.315.153.339.118.36.079.375.04.39-.004.397-.045.4-.092.4-.135.393-.179.38-.221.365-.266.347-.302.318-.342.289-.373.254-.406.216-.433.174-.453.13-.471.077-.484.03-.488-.021-.49-.076-.487-.13-.473-.18-.462-.237-.434-.285-.407-.334-.377-.381-.335-.421-.292-.461-.245-.496-.193-.527-.137-.548-.079-.565-.019-.576.043-.582.106-.582.169-.572.231-.557.291-.532.352-.506.404-.47.46-.429.505-.383.549-.33.586-.27.618-.21.643-.145.659-.076.672-.006.676.067.669.135.656.212.639.282.608.348.574.416.53.479.484.536.423.59.365.639.297.676.227.711.15.74.072.755-.009.765-.088.764-.172.76-.253.741-.333.717-.409.684-.483.641-.553.591-.617.532-.675.47-.724.397-.769.32-.806.242-.833.153-.85.066-.86-.024-.856-.115-.847-.207-.827-.295-.795-.388-.755-.47-.708-.55-.65-.63-.583-.695-.509-.76-.43-.816-.343-.862-.253-.898-.156-.929-.059-.945.041-.953.142-.948.244-.934.343-.91.439-.874.533-.826.621-.771.704-.707.779-.631.848-.55.905-.462.953-.364.994-.262 1.024-.158 1.038-.05 1.046.06 1.04.172 1.022.282.99.389.95.496.898.597.838.691.762.781.677.861.588.933.492.995.383 1.05.272 1.088"/><path stroke="#fff" stroke-linecap="round" stroke-width=".843" d="M111.52 75.497q4.978-4.955 11.129-1.564" opacity=".5"/><path fill="#f2b75e" fill-rule="evenodd" d="M42.52 83.466a9 9 0 0 0-.797.969c-4.445 6.234-.237 17.027 12.022 17.123 2.284.018 4.29-.279 6.01-.815 3.024-.585 5.21-1.837 6.602-3.449 4.244-4.378 6.436-8.7 6.436-8.7l.574-.99c2.713-4.672 3.802-6.547 3.266-8.855-.089-.385-.287-.742-.527-1.056-7.604-9.954-12.689-10.707-23.13-5.555-1.303.643-2.439 1.582-3.362 2.704l-.85 1.032zM53.745 96.64c-9.939-.856-10.435-11.11 0-9.836s9.938 10.691 0 9.836" clip-rule="evenodd"/><path fill="#fef9f1" fill-rule="evenodd" d="M53.745 96.64c-9.939-.856-10.435-11.11 0-9.836s9.938 10.691 0 9.836" clip-rule="evenodd"/><path stroke="#000" stroke-linecap="round" stroke-width="1.093" d="M41.723 84.435c-4.445 6.234-.237 17.027 12.022 17.123 2.284.018 4.29-.279 6.01-.815M41.724 84.435q.36-.505.797-.969m-.797.969.797-.969m17.236 17.277c13.578-2.627 10.266-18.706-6.011-20.497-5.265-.58-8.993.857-11.225 3.22m17.236 17.277c3.023-.585 5.209-1.837 6.6-3.449 4.245-4.378 6.437-8.7 6.437-8.7l.574-.99c2.713-4.672 3.802-6.547 3.266-8.855m-27.868-2.874c9.814-3.844 14.807-4.442 20.827 3.278m-20.827-3.279-6.245 7.592m6.245-7.591.849-1.032m0 0c.923-1.123 2.06-2.062 3.363-2.705m-3.363 2.704v0c.923-1.122 2.06-2.06 3.363-2.704v0m0 0c10.44-5.152 15.525-4.4 23.129 5.555m0 0c.24.314.438.671.528 1.056m-.528-1.056.004.006c.24.314.434.665.523 1.05v0M53.745 96.64c-9.939-.855-10.435-11.11 0-9.835 10.435 1.273 9.938 10.691 0 9.836Z"/><path fill="#f2b75e" fill-rule="evenodd" d="M133.52 22.466a9 9 0 0 0-.797.969c-4.445 6.234-.237 17.027 12.022 17.123 2.284.018 4.289-.279 6.011-.815 3.023-.585 5.209-1.837 6.601-3.449 4.244-4.378 6.436-8.7 6.436-8.7l.574-.99c2.713-4.672 3.802-6.547 3.266-8.855-.089-.385-.287-.742-.527-1.056-7.604-9.954-12.689-10.707-23.129-5.555-1.304.643-2.44 1.582-3.363 2.704l-.849 1.032zm11.225 13.174c-9.939-.856-10.435-11.11 0-9.836s9.938 10.691 0 9.836" clip-rule="evenodd"/><path fill="#fef9f1" fill-rule="evenodd" d="M144.745 35.64c-9.939-.856-10.435-11.11 0-9.836s9.938 10.691 0 9.836" clip-rule="evenodd"/><path stroke="#000" stroke-linecap="round" stroke-width="1.093" d="M132.723 23.435c-4.445 6.234-.237 17.027 12.022 17.123 2.284.018 4.289-.279 6.011-.815m-18.033-16.308q.36-.505.797-.969m-.797.969.797-.969m17.236 17.277c13.578-2.627 10.266-18.706-6.011-20.497-5.265-.58-8.993.857-11.225 3.22m17.236 17.277c3.023-.585 5.209-1.837 6.601-3.449 4.244-4.378 6.436-8.7 6.436-8.7l.574-.99c2.713-4.672 3.802-6.547 3.266-8.855m-27.868-2.874c9.814-3.844 14.807-4.442 20.827 3.278m-20.827-3.278-6.245 7.591m6.245-7.592.849-1.032m0 0c.923-1.122 2.059-2.06 3.363-2.703m-3.363 2.704v0c.923-1.123 2.059-2.062 3.363-2.704v0m0 0c10.44-5.153 15.525-4.4 23.129 5.554m0 0c.24.314.438.671.527 1.056m-.527-1.056.004.006c.24.314.434.665.523 1.05v0m-22.888 17.89c-9.939-.855-10.435-11.11 0-9.836s9.938 10.692 0 9.837Z"/><path fill="#f2b75e" stroke="#000" stroke-width="1.011" d="M26.322 160.937c9.196 1.457 17.831-4.817 19.287-14.013 1.457-9.195-4.817-17.83-14.013-19.287-9.195-1.456-17.83 4.818-19.287 14.013-1.456 9.196 4.818 17.831 14.013 19.287Z"/><path stroke="#d18a3c" stroke-linecap="round" stroke-width="1.011" d="m16.694 135.517 3.035 2.393 3.409.028 3.689-1.737 3.504-.572 3.103 1.96 2.987 2.691 3.314.628M15.903 140.513l3.035 2.392 3.409.028 3.688-1.737 3.505-.572 3.103 1.96 2.987 2.691 3.314.628M15.112 145.508l3.034 2.392 3.41.028 3.688-1.737 3.504-.572 3.104 1.96 2.987 2.692 3.314.627"/><path fill="#c6782e" d="M38.152 146.597a.844.844 0 1 0 .262-1.667.844.844 0 0 0-.262 1.667M35.36 150.104a.843.843 0 1 0 .264-1.665.843.843 0 0 0-.264 1.665M29.512 151.279a.843.843 0 1 0 .264-1.665.843.843 0 0 0-.264 1.665M23.343 149.572a.843.843 0 1 0 .264-1.665.843.843 0 0 0-.264 1.665M19.741 145.782a.843.843 0 1 0 .264-1.665.843.843 0 0 0-.264 1.665M20.39 141.682a.843.843 0 1 0 .264-1.665.843.843 0 0 0-.264 1.665M24.988 139.19a.843.843 0 1 0 .264-1.665.843.843 0 0 0-.264 1.665M31.382 139.473a.843.843 0 1 0 .263-1.665.843.843 0 0 0-.264 1.665M36.58 142.398a.843.843 0 1 0 .264-1.665.843.843 0 0 0-.264 1.665"/><path fill="#f2b75e" stroke="#000" stroke-width="1.011" d="M85.65 40.937c9.196 1.457 17.831-4.817 19.287-14.013 1.457-9.195-4.817-17.83-14.013-19.287-9.195-1.456-17.83 4.818-19.287 14.013-1.456 9.196 4.817 17.83 14.013 19.287Z"/><path stroke="#d18a3c" stroke-linecap="round" stroke-width="1.011" d="m76.022 15.518 3.035 2.392 3.409.028 3.689-1.737 3.504-.572 3.103 1.96 2.987 2.692 3.314.627M75.23 20.513l3.035 2.392 3.41.028 3.688-1.737 3.504-.572 3.104 1.96 2.987 2.692 3.314.627M74.44 25.508l3.034 2.392 3.41.028 3.688-1.737 3.504-.572 3.104 1.96 2.987 2.691 3.314.628"/><path fill="#c6782e" d="M97.48 26.597a.843.843 0 1 0 .263-1.665.843.843 0 0 0-.264 1.665M94.688 30.104a.843.843 0 1 0 .264-1.665.843.843 0 0 0-.264 1.665M88.84 31.28a.843.843 0 1 0 .263-1.666.843.843 0 0 0-.263 1.665M82.671 29.572a.843.843 0 1 0 .264-1.664.843.843 0 0 0-.264 1.664M79.069 25.782a.843.843 0 1 0 .263-1.665.843.843 0 0 0-.263 1.665M79.718 21.682a.843.843 0 1 0 .264-1.665.843.843 0 0 0-.264 1.665M84.316 19.19a.843.843 0 1 0 .263-1.665.843.843 0 0 0-.263 1.665M90.71 19.473a.843.843 0 1 0 .263-1.665.843.843 0 0 0-.264 1.665M95.908 22.398a.843.843 0 1 0 .264-1.665.843.843 0 0 0-.264 1.665"/><path fill="#f6d28a" stroke="#000" stroke-width=".983" d="M87.28 160.569c8.856 1.088 16.916-5.21 18.004-14.065 1.087-8.856-5.21-16.916-14.066-18.003-8.855-1.087-16.916 5.21-18.003 14.065s5.21 16.916 14.066 18.003Z"/><path fill="#8b5a2b" d="M89.022 146.385a1.863 1.863 0 1 0 .456-3.699 1.863 1.863 0 0 0-.456 3.699"/><path stroke="#fff" stroke-linecap="round" stroke-width=".983" d="M85.684 135.333q5.005-2.515 9.25 1.136" opacity=".5"/><path fill="#f6d28a" stroke="#000" stroke-width=".983" d="M26.034 40.037c8.856 1.087 16.916-5.21 18.003-14.065S38.827 9.056 29.972 7.969c-8.856-1.088-16.916 5.21-18.003 14.065-1.088 8.856 5.21 16.916 14.065 18.003Z"/><path fill="#8b5a2b" d="M27.776 25.853a1.864 1.864 0 1 0 .454-3.7 1.864 1.864 0 0 0-.454 3.7"/><path stroke="#fff" stroke-linecap="round" stroke-width=".983" d="M24.438 14.801q5.005-2.515 9.25 1.136" opacity=".5"/><path fill="#e6a95c" stroke="#000" stroke-width="1.031" d="M298.5 102c9.113 0 16.5-7.387 16.5-16.5S307.613 69 298.5 69 282 76.387 282 85.5s7.387 16.5 16.5 16.5Z"/><path stroke="#fff" stroke-linecap="round" stroke-width="1.031" d="M294.375 76.563q4.125-2.751 8.25 0" opacity=".5"/><path fill="#f6d28a" stroke="#000" stroke-width=".843" d="M206.604 39.756c8.451-1.188 14.339-9.002 13.152-17.453-1.188-8.452-9.002-14.34-17.454-13.152-8.451 1.187-14.339 9.001-13.151 17.453 1.187 8.451 9.001 14.34 17.453 13.152Z"/><path stroke="#6cc66c" stroke-linecap="round" stroke-width="1.124" d="m204.453 24.453.059-.003.061.012.058.023.05.035.049.045.039.056.029.067.019.074.006.079-.006.083-.019.088-.036.087-.05.084-.062.082-.081.074-.093.067-.105.057-.116.045-.126.032-.137.014-.139-.004-.148-.019-.147-.038-.147-.06-.145-.078-.141-.1-.131-.12-.118-.137-.107-.155-.093-.171-.071-.189-.054-.2-.029-.208-.006-.22.017-.224.045-.225.073-.226.1-.221.125-.216.153-.203.178-.19.203-.173.228-.154.245-.131.266-.106.282-.076.294-.047.304-.015.309.02.312.055.31.087.304.125.295.16.28.196.262.227.24.258.217.29.183.315.153.339.119.36.078.375.04.39-.003.397-.046.4-.092.4-.135.393-.179.38-.221.365-.266.347-.302.318-.342.289-.373.254-.406.216-.433.174-.453.13-.471.077-.484.03-.488-.021-.49-.076-.486-.13-.474-.18-.462-.237-.434-.285-.407-.334-.377-.381-.335-.421-.292-.461-.245-.497-.193-.526-.137-.548-.079-.565-.019-.576.043-.582.106-.582.169-.572.231-.557.291-.532.352-.506.405-.47.459-.429.505-.383.549-.33.586-.27.618-.21.643-.145.659-.076.672-.006.676.067.669.136.656.21.639.283.608.348.574.416.53.479.484.536.424.59.364.639.297.676.228.711.149.74.072.755-.009.765-.088.764-.172.76-.253.741-.333.717-.409.684-.483.641-.553.591-.617.532-.675.47-.724.397-.769.32-.806.242-.833.153-.85.066-.86-.024-.856-.115-.846-.207-.828-.295-.795-.388-.755-.47-.708-.55-.65-.63-.583-.695-.509-.76-.43-.816-.342-.863-.254-.897-.156-.929-.059-.945.042-.953.142-.948.243-.934.343-.91.439-.874.533-.826.621-.771.704-.707.779-.631.848-.55.905-.463.954-.363.993-.262 1.024-.158 1.038-.05 1.046.06 1.04.172 1.022.282.99.389.95.496.898.598.838.69.762.781.677.861.588.933.492.995.383 1.05.272 1.088"/><path stroke="#fff" stroke-linecap="round" stroke-width=".843" d="M197.52 15.497q4.978-4.955 11.129-1.564" opacity=".5"/><path fill="#f2b75e" fill-rule="evenodd" d="M130.52 143.297a9 9 0 0 0-.797.968c-4.445 6.234-.237 17.027 12.022 17.123 2.284.018 4.289-.279 6.011-.814 3.023-.585 5.209-1.837 6.601-3.449 4.244-4.378 6.436-8.7 6.436-8.7l.574-.99c2.713-4.672 3.802-6.547 3.266-8.855-.089-.385-.287-.742-.527-1.057-7.604-9.954-12.689-10.707-23.129-5.554-1.304.643-2.44 1.582-3.363 2.704l-.849 1.032zm11.225 13.173c-9.939-.856-10.435-11.11 0-9.836s9.938 10.692 0 9.836" clip-rule="evenodd"/><path fill="#fef9f1" fill-rule="evenodd" d="M141.745 156.47c-9.939-.856-10.435-11.11 0-9.836s9.938 10.692 0 9.836" clip-rule="evenodd"/><path stroke="#000" stroke-linecap="round" stroke-width="1.093" d="M129.723 144.265c-4.445 6.234-.237 17.027 12.022 17.123 2.284.018 4.289-.279 6.011-.814m-18.033-16.309q.36-.506.797-.968m-.797.968.797-.968m17.236 17.277c13.578-2.627 10.266-18.706-6.011-20.498-5.265-.579-8.993.858-11.225 3.221m17.236 17.277c3.023-.585 5.209-1.837 6.601-3.449 4.244-4.378 6.436-8.7 6.436-8.7l.574-.99c2.713-4.672 3.802-6.547 3.266-8.855m-27.868-2.875c9.814-3.843 14.807-4.442 20.827 3.279m-20.827-3.279-6.245 7.592m6.245-7.592.849-1.032m0 0c.923-1.122 2.059-2.061 3.363-2.704m-3.363 2.704v0c.923-1.122 2.059-2.061 3.363-2.704v0m0 0c10.44-5.153 15.525-4.4 23.129 5.554m0 0c.24.315.438.672.527 1.057m-.527-1.057.004.006c.24.315.434.666.523 1.051v0m-22.888 17.89c-9.939-.856-10.435-11.11 0-9.836s9.938 10.692 0 9.836Z"/><path fill="#f6d28a" stroke="#000" stroke-width=".983" d="M174.034 103.037c8.856 1.087 16.916-5.21 18.003-14.065s-5.21-16.916-14.065-18.003c-8.856-1.088-16.916 5.21-18.003 14.065-1.088 8.856 5.21 16.916 14.065 18.003Z"/><path fill="#8b5a2b" d="M175.776 88.853a1.863 1.863 0 1 0 .455-3.699 1.863 1.863 0 0 0-.455 3.7"/><path stroke="#fff" stroke-linecap="round" stroke-width=".983" d="M172.438 77.801q5.004-2.515 9.25 1.136" opacity=".5"/></g></g><defs><clipPath id="a"><path fill="#fff" d="M0 0h299v180H0z"/></clipPath><clipPath id="b"><path fill="#fff" d="M-74-76h1532v493H-74z"/></clipPath></defs></svg>