<svg xmlns="http://www.w3.org/2000/svg" width="251" height="251" fill="none" viewBox="0 0 251 251"><path stroke="#000" stroke-linecap="round" stroke-width="1.5" d="M44.002 41.5C89.772-.26 161.4-5.847 206.999 41.5c45.597 47.347 45.678 120.15.001 166s-116.627 47.896-163 0C-2.372 159.605 3.772 114.236 23.5 68"/><path fill="#000" d="M169.498 100.5c.034-10.814-1.97-15.312-13-17.5-2.73 2.287-4.466 3.119-8.424 3.5-.542 1.685-1.281 3.43-2.576 6 2.388 12.316 5.717 16.484 14.5 20 6.037-4.564 6.928-8.591 5.5-17.5 1.78 1.455 2.591 2.704 4 5.5M83.998 53c.08 1.63.1 3.108.057 4.5 3.496-22.285 8.82-30.801 28.945-32 1.686.02 2.675.136 4.5.5 15.5-1 22.981 10.37 38 31L144 44l6 23.5c3.446-3.931 6-6.5 9.498-5 1.189-3.49 1.587-5.53 1.5-9.5-.516-11.433-3.078-17.234-11.797-25.816a9.4 9.4 0 0 0-1.531-1.215c-13.399-8.525-21.167-10.525-33.672-8.97-14.193 3.128-20.505 6.841-27.5 17.5-2.993 5.513-3.157 9.897-2.5 18.5"/><path stroke="#000" stroke-linecap="round" d="M26.68 41.84C17.121 50.095 21.388 60.398 37.5 85c-12.447-31.946-16.394-44.025-6.003-46 10.392-1.975 11.398 18.519 10 45m-1.497 0c-1.718-28.013-3.968-37.748-9.959-43.5-.177-.17-.61-.65-.794-.814M39.002 84.5c-6.426-22.55-11.146-37.804-6.674-42.196 1.896-1.864 5.08-1.245 7.474-.088C50.199 47.24 45.393 63.14 42.5 84m-6.003 9-1-6c3.08-2.472 5.412-2.687 9-2l1 10m-9-2c-4.878 2.134-5.85 4.02-6 8m6-8c4.597 1.634 7.863 4.031 9.5 6.099m-2 4.401c.5 0 1.837.886 3-1 .469-.76.105-2.006-1-3.401m-2 4.401c-4.477-3.481-7.558-3.66-13.5-2.5m13.5 2.5c1.859 2.293 2.726 3.66 3.5 6.5.312 1.343.2 2.084-.4 2.5m-16.6-11.5c-3.044 2.01-3.213 3.243-3 6m0 0c8.58-1.27 12.53-.157 17.5 6m-17.5-6c-2.589 2.578-2.495 3.998-1 6.5m18.5-.5c2.11 4.574 1.736 5.566-2.5 4.5m2.5-4.5c.973-.067 1.664-.199 2.1-.5m-4.6 5c-5.149-4.341-8.777-5.091-16-4m16 4c2.113 4.034 2.136 5.496-2.5 5m-13.5-9c-2.278 6.674 0 11.136 6 16.5m7.5-7.5-3.5-2-3-.25m6.5 2.25c.354 2.675.77 4.201 1.934 6.121.34.559.959.89 1.613.877 4.003-.078 5.635-1.099 4.953-6.498l-1.4-10.5m-16.6 7.5 3 .25m0 0c1.332 1.248 1.413 2.042-.5 3.75m2.5 8.5c-1.332-1.059-1.939-1.552-3-2.5m0 0c-5.855 30.552-6.406 41.18-.59 49.5 7.123 12.172 13.37 11.259 26.174 2.777.273-.182.533-.394.765-.626l6.151-6.151m0 0c.016-8.836.736-13.619 4.5-21.5m-4.5 21.5 2.5 20.5c-1.636 6.866-2.619 10.248-4.5 16-1.137 3.917-1.462 6.599-1.5 10.5m8-68.5c-5.169-5.299-9.47-7.746-17.376-9.631L71.498 120c4.797-5.176 10.814-7.589 24-9.932m-26 43.932 3.25-7m-26.75-47.901-.5-4.1m0 0c2.928-3.45 4.843-3.884 6.675-.62.225.401.325.86.325 1.32v8.352c0 .298.046.596.131.881 2.383 7.934 2.413 12.102-.13 18.568l-2.84 4.731a1 1 0 0 0-.14.585c.68 9.69 2.046 14.507 4.98 22.684 3.743 8.872 4.066 13.921 2.5 23m44.999-65.5c-2.345.361-4.504.713-6.5 1.068m0 0c-7.931 10.554-11.267 16.769-17 27.932m0 0 9.5 2m-9.5-2c-1.099.015-1.544.414-2.5 2l-2.09 4.5m14.09-4.5c2.436-5.886 4.548-10.494 6.907-15m-6.907 15c18.172 4.485 29.844 5.289 51.5 4m-35.5-34.5c-8.081-6.582-12.517-10.437-18.348-17.235a9.2 9.2 0 0 1-1.132-1.65c-3.289-6.143-4.45-10.145-3.52-18.115m23 37c.861.432 1.691.802 2.5 1.113m-2.5-1.113a352 352 0 0 0-4.308 7m-18.692-44c-1.325-4.4-1.15-6.869-1-11 .509-3.358 1.45-4.145 4.057-4m-3.057 15c1.903-5.946 2.9-9.884 3.057-15m0 0a56 56 0 0 0-.057-4.5c-.657-8.604-.493-12.988 2.5-18.5 6.995-10.66 13.307-14.373 27.5-17.5 12.505-1.556 20.273.444 33.672 8.97.548.348 1.067.758 1.531 1.214 8.719 8.582 11.281 14.383 11.797 25.816.087 3.97-.311 6.01-1.5 9.5m-75.443-5c3.496-22.285 8.82-30.801 28.945-32 1.686.02 2.675.136 4.5.5 15.5-1 22.981 10.37 38 31L144 44l6 23.5c3.446-3.931 6-6.5 9.498-5m0 0c3.388 4.353 3.33 7.907.876 14.945a8.7 8.7 0 0 1-.988 1.989c-.939 1.396-1.66 2.276-2.888 3.566m0 0c11.03 2.188 13.034 6.686 13 17.5-1.409-2.796-2.22-4.045-4-5.5 1.428 8.909.537 12.936-5.5 17.5-8.783-3.516-12.112-7.684-14.5-20m11-9.5c-2.73 2.287-4.466 3.119-8.424 3.5m-2.576 6c1.295-2.57 2.034-4.315 2.576-6m-2.576 6a93 93 0 0 1-3 3.512m6.5-13.012c-.291 1.29-.564 2.381-.924 3.5m-41.576 24.113c6.133 2.358 11.12 1.295 20-2.613 6.716-3.534 10.815-6.24 16-11.988m-36 14.601c.88 4.239.814 6.399 0 9.887m36-24.488c-.359 3.883-.469 6.005 0 9.488m0 0a535 535 0 0 1-.437 12.5m.437-12.5 8 3.5m-11 35c.886-6.56 1.559-11.444 2.069-18m-2.069 18h11m-8.931-18c-4.888 4.85-7.76 7.173-13.069 11m13.069-11c.185-2.391.35-5.003.494-8m0 0c-8.988 9.242-13.614 14.977-25.063 18s-17.242-3.125-17.308-19.5m0 0a172 172 0 0 0-4.785 8.5m0 0c.953 4.219 1.655 6.532 3.593 10.5M72.748 147c-.96-4.255-1.609-6.588-3.25-10.5m3.25 10.5 1.16-2.5m0 0 3.09-21m73.5 20.5c.579-13.668.649-21.331 0-35m0 35c2.076-.248 3.126 9.125 5 25.5l1 2h5l1.5-1.5m-12.5-61c10.584 3.706 15.806 6.182 23.5 11.5 6.838 5.39 10.72 13.759 20.5 37.5m0 0c.088 1.306-.233 2.149-2 4m2-4c-1.221.07-2.385.152-3.5.249m-28 11.751-4.5-16.5c.624-11.357 2.467-17.274 8.5-27m-4 43.5c8.497-7.388 14.617-10.587 28-11.751m1.5 3.751-1.5-3.751m1.5 3.751 5 13m0 0c11.292.57 14.404 2.364 8.5 10.5l-3.75 5.75m-4.75-16.25-69.998-5c-1.119-.117-2.018.602-4 3m69.498 25.5c2.244-.915 3.347-1.214 5.5-1.5l3.75-5.75m-9.25 7.25 9.516-14.5m-9.516 14.5c-4.143 3.894-5.787 6.248-5.669 8M123.5 173l73.998 5c7.934.231 8.456 1.435 6 4.5l-.984 1.5M123.5 173 95 207c-1.92 3.911-.94 5.321 3 7m104.514-30-74.989-6.455a4 4 0 0 0-3.36 1.358L101 205.5c-3.212 3.524-4.336 4.964-1 5.5l1 .118 71 8.382c3.22.572 4.988.23 8-3l7.329-10m14.919-15.25c3.816 13.921-.258 19.265-17.748 24.75m0 0 4.5-7m-4.5 7-2.5 3.5c-1.421 1.748-2.562 2.773-4 3.246M189 209c3.951.096 7.5-5 8-5m-8 5c-1.008-.755-1.606-1.537-1.671-2.5M98 214l76.5 9c1.421.132 2.528.065 3.5-.254M98 214c1.13 2.793 2.879 4.004 8 5.5l59.5 7.028m12.5-3.782c-.474.917-.948 1.662-1.5 2.257M153.5 80c2.639-4.23 2.831-5.915 1-9.5M152 75c1.409-4.171 2.705-5.96 6.5-7.5m7 159.028 4 .472c3.683.062 5.593-.48 7-1.997m-11 1.525.5 7.972m10.5-9.497.5 4.497"/><path fill="#000" d="M119.5 66c4.5-8.5 13.5-7.5 15 0-1-9.5-12-9.5-15 0"/><path fill="#000" d="M130 62c-4.02.774-4.695 7.711-1 8 1.936.151 2.793-2.146 3-4.5-1.466-.265-1.49-1.279 0-1.5 0-1.5-.585-2.273-2-2"/><path stroke="#000" d="M134.5 66c-1.5-7.5-10.5-8.5-15 0 3-9.5 14-9.5 15 0Zm0 0 3-2m-7.5-2c-4.02.774-4.695 7.711-1 8 1.936.151 2.793-2.146 3-4.5-1.466-.265-1.49-1.279 0-1.5 0-1.5-.585-2.273-2-2Z"/><path fill="#000" d="M118 53.5c7.81-4.96 12.5-4 20.5 1-3.5-6.5-14-11-20.5-1"/><path fill="#000" d="m118 53.5-.419-.273a.5.5 0 0 0 .687.695zm20.5 1-.265.424 1.599 1-.894-1.661zm-20.5-1 .268.422c3.856-2.449 6.872-3.392 9.872-3.159 3.021.235 6.107 1.668 10.095 4.161l.265-.424.265-.424c-4.012-2.507-7.271-4.055-10.547-4.31-3.297-.256-6.531.8-10.486 3.312zm20.5 1 .44-.237c-1.817-3.374-5.441-6.227-9.478-6.943-4.084-.724-8.528.75-11.881 5.907l.419.273.419.273c3.147-4.842 7.203-6.119 10.869-5.468 3.713.659 7.089 3.306 8.772 6.432z"/><path fill="#fff" d="M127.5 24c.581.16 1.128.318 1.704.49 5.072 1.501 10.032 3.568 14.167 6.849 4.154 3.251 7.463 7.452 10.591 11.724.354.486.687.946 1.038 1.437-.323-.51-.63-.988-.96-1.492-2.906-4.423-6.136-8.754-10.361-12.063-4.206-3.338-9.308-5.307-14.45-6.547-.585-.143-1.14-.27-1.729-.398M154.5 88.5c.159.203.31.4.465.603 1.386 1.807 2.549 3.69 3.343 5.74.807 2.05 1.361 4.23 1.984 6.423l.208.734a38 38 0 0 0-.02-.763c-.092-2.278-.385-4.58-1.242-6.761-.843-2.187-2.359-4.077-4.136-5.505a20 20 0 0 0-.602-.471M157 85c.134.104.26.203.394.305 1.182.903 2.386 1.708 3.573 2.506 1.188.794 2.369 1.61 3.615 2.42q.207.135.418.269a18 18 0 0 0-.288-.407c-.874-1.202-1.942-2.28-3.187-3.112-1.243-.835-2.619-1.424-4.045-1.846-.162-.048-.317-.09-.48-.135M112.5 19c.23 0 .45 0 .679-.002 2.031-.01 4.053-.052 6.071-.052 2.02-.002 4.04.035 6.071.05L126 19a58 58 0 0 0-.672-.099c-2.012-.284-4.041-.457-6.078-.455-2.036 0-4.067.177-6.078.457z"/><path fill="#000" d="M90 63c-.88-6.273 8.5-9 12.5 1.5-4-14-15.527-6.687-12.5-1.5"/><path fill="#000" d="m89.505 63.07.99-.14a4.9 4.9 0 0 1 .056-1.866c.526-2.684 3.895-3.953 6.393-2.763 2.563 1.091 4.269 3.654 5.309 6.293l.501-.166c-.949-3.107-2.544-6.498-5.781-7.784-3.16-1.294-7.295.948-7.495 4.38A3.6 3.6 0 0 0 90 63a3.57 3.57 0 0 1-.472-1.973c.283-3.38 4.385-5.422 7.34-4.114 3.043 1.29 4.525 4.592 5.378 7.66l.501-.167c-1.01-2.73-2.685-5.485-5.509-6.783-2.724-1.417-6.87-.091-7.61 3.213a5.9 5.9 0 0 0-.123 2.233m.99-.14-.99.14L90 63z"/><path fill="#000" stroke="#000" d="M98 60c-4 1-2.779 8.09 0 8s2.44-1.677 2.5-4.5c-.827-.321-.932-.558-1-1 .12-.556.304-.796 1-1-.632-1.05-1.023-1.59-2.5-1.5Z"/><path fill="#000" d="M87 50.5c4.5-4.5 11.5-4 16.5 2-2-7-11.5-9.5-16.5-2"/><path fill="#000" d="m87 50.5-.416-.277a.5.5 0 0 0 .77.63zm16.5 2-.384.32.865-.457zm-16.5-2 .354.354c2.146-2.147 4.873-3.09 7.656-2.794 2.787.296 5.675 1.843 8.106 4.76l.384-.32.384-.32c-2.569-3.083-5.681-4.786-8.769-5.115-3.092-.329-6.115.728-8.469 3.082zm0 0 .416.277c2.393-3.59 5.824-4.75 8.874-4.222a8.52 8.52 0 0 1 6.729 6.082l.481-.137.481-.137a9.52 9.52 0 0 0-7.52-6.793c-3.45-.597-7.27.742-9.877 4.653z"/><path stroke="#000" stroke-linecap="round" d="M106 62c.823 5.844-.457 8.132-4 11.5-1.407 1.69-1.457 2.672 0 4.5 1.614 1.646 2.685 2.336 5 3"/><path fill="#000" d="M109.099 78.237a.44.44 0 0 0-.189.048.27.27 0 0 0-.122.136.26.26 0 0 0 .003.181.44.44 0 0 0 .11.161q.084.082.169.159a5.2 5.2 0 0 0 1.667 1.03q.9.338 1.933.32.115-.002.231-.009a.44.44 0 0 0 .189-.048.27.27 0 0 0 .122-.136.26.26 0 0 0-.003-.181.44.44 0 0 0-.11-.161 6 6 0 0 0-.169-.159 5.2 5.2 0 0 0-1.667-1.03 5.2 5.2 0 0 0-1.933-.32 6 6 0 0 0-.231.009"/><path stroke="#000" d="M98 91.5c6.047-2.58 18.932-3.546 29.5-1.5-10.622-2.615-18.663-2.237-29.5 1.5Z"/><path fill="#000" d="M105.683 100.287a.4.4 0 0 0-.195-.026.26.26 0 0 0-.165.087.26.26 0 0 0-.061.176c0 .066.023.131.055.189q.135.24.294.46a4 4 0 0 0 1.71 1.368c2.563 1.017 5.087.193 7.274-.586q.235-.088.475-.183a.3.3 0 0 0 .158-.135.28.28 0 0 0 .028-.203.28.28 0 0 0-.123-.165.3.3 0 0 0-.203-.041l-.5.064c-2.309.273-4.661.651-6.539-.139-.54-.221-1.096-.45-1.725-.688q-.234-.089-.483-.178M127.366 87l-.098.314c-.291.939-.526 1.83-.752 2.698-.239.863-.416 1.71-.946 2.5a3 3 0 0 1-.201.255 2 2 0 0 0 .319-.107c.962-.425 1.546-1.44 1.795-2.394.255-.974.224-1.986-.025-2.948a6 6 0 0 0-.092-.318M99.484 93.262l-.094-.198a23 23 0 0 0-.813-1.514 7.2 7.2 0 0 0-1.24-1.55 5 5 0 0 0-.02.22c-.043.654.067 1.286.404 1.847.332.566.916.982 1.548 1.143q.105.029.215.052"/></svg>